solid cube
  facet normal 0 0 0
    outer loop
      vertex -0.0250 -0.0250 -0.0250
      vertex -0.0250 0.0250 -0.0250
      vertex 0.0250 -0.0250 -0.0250
    endloop
  endfacet
  facet normal 0 0 0
    outer loop
      vertex 0.0250 -0.0250 -0.0250
      vertex -0.0250 0.0250 -0.0250
      vertex 0.0250 0.0250 -0.0250
    endloop
  endfacet
  facet normal 0 0 0
    outer loop
      vertex -0.0250 -0.0250 0.0250
      vertex 0.0250 -0.0250 0.0250
      vertex -0.0250 0.0250 0.0250
    endloop
  endfacet
  facet normal 0 0 0
    outer loop
      vertex 0.0250 -0.0250 0.0250
      vertex 0.0250 0.0250 0.0250
      vertex -0.0250 0.0250 0.0250
    endloop
  endfacet
  facet normal 0 0 0
    outer loop
      vertex -0.0250 -0.0250 -0.0250
      vertex 0.0250 -0.0250 -0.0250
      vertex -0.0250 -0.0250 0.0250
    endloop
  endfacet
  facet normal 0 0 0
    outer loop
      vertex 0.0250 -0.0250 -0.0250
      vertex 0.0250 -0.0250 0.0250
      vertex -0.0250 -0.0250 0.0250
    endloop
  endfacet
  facet normal 0 0 0
    outer loop
      vertex 0.0250 0.0250 -0.0250
      vertex -0.0250 0.0250 -0.0250
      vertex 0.0250 0.0250 0.0250
    endloop
  endfacet
  facet normal 0 0 0
    outer loop
      vertex -0.0250 0.0250 -0.0250
      vertex -0.0250 0.0250 0.0250
      vertex 0.0250 0.0250 0.0250
    endloop
  endfacet
  facet normal 0 0 0
    outer loop
      vertex 0.0250 -0.0250 -0.0250
      vertex 0.0250 0.0250 -0.0250
      vertex 0.0250 -0.0250 0.0250
    endloop
  endfacet
  facet normal 0 0 0
    outer loop
      vertex 0.0250 0.0250 -0.0250
      vertex 0.0250 0.0250 0.0250
      vertex 0.0250 -0.0250 0.0250
    endloop
  endfacet
  facet normal 0 0 0
    outer loop
      vertex -0.0250 0.0250 -0.0250
      vertex -0.0250 -0.0250 -0.0250
      vertex -0.0250 0.0250 0.0250
    endloop
  endfacet
  facet normal 0 0 0
    outer loop
      vertex -0.0250 -0.0250 -0.0250
      vertex -0.0250 -0.0250 0.0250
      vertex -0.0250 0.0250 0.0250
    endloop
  endfacet
endsolid cube
