solid cube
  facet normal 0 0 0
    outer loop
      vertex -0.0750 -0.0200 -0.0200
      vertex -0.0750 0.0200 -0.0200
      vertex 0.0750 -0.0200 -0.0200
    endloop
  endfacet
  facet normal 0 0 0
    outer loop
      vertex 0.0750 -0.0200 -0.0200
      vertex -0.0750 0.0200 -0.0200
      vertex 0.0750 0.0200 -0.0200
    endloop
  endfacet
  facet normal 0 0 0
    outer loop
      vertex -0.0750 -0.0200 0.0200
      vertex 0.0750 -0.0200 0.0200
      vertex -0.0750 0.0200 0.0200
    endloop
  endfacet
  facet normal 0 0 0
    outer loop
      vertex 0.0750 -0.0200 0.0200
      vertex 0.0750 0.0200 0.0200
      vertex -0.0750 0.0200 0.0200
    endloop
  endfacet
  facet normal 0 0 0
    outer loop
      vertex -0.0750 -0.0200 -0.0200
      vertex 0.0750 -0.0200 -0.0200
      vertex -0.0750 -0.0200 0.0200
    endloop
  endfacet
  facet normal 0 0 0
    outer loop
      vertex 0.0750 -0.0200 -0.0200
      vertex 0.0750 -0.0200 0.0200
      vertex -0.0750 -0.0200 0.0200
    endloop
  endfacet
  facet normal 0 0 0
    outer loop
      vertex 0.0750 0.0200 -0.0200
      vertex -0.0750 0.0200 -0.0200
      vertex 0.0750 0.0200 0.0200
    endloop
  endfacet
  facet normal 0 0 0
    outer loop
      vertex -0.0750 0.0200 -0.0200
      vertex -0.0750 0.0200 0.0200
      vertex 0.0750 0.0200 0.0200
    endloop
  endfacet
  facet normal 0 0 0
    outer loop
      vertex 0.0750 -0.0200 -0.0200
      vertex 0.0750 0.0200 -0.0200
      vertex 0.0750 -0.0200 0.0200
    endloop
  endfacet
  facet normal 0 0 0
    outer loop
      vertex 0.0750 0.0200 -0.0200
      vertex 0.0750 0.0200 0.0200
      vertex 0.0750 -0.0200 0.0200
    endloop
  endfacet
  facet normal 0 0 0
    outer loop
      vertex -0.0750 0.0200 -0.0200
      vertex -0.0750 -0.0200 -0.0200
      vertex -0.0750 0.0200 0.0200
    endloop
  endfacet
  facet normal 0 0 0
    outer loop
      vertex -0.0750 -0.0200 -0.0200
      vertex -0.0750 -0.0200 0.0200
      vertex -0.0750 0.0200 0.0200
    endloop
  endfacet
endsolid cube
