solid cube
  facet normal 0 0 0
    outer loop
      vertex -0.0750 -0.0150 -0.0150
      vertex -0.0750 0.0150 -0.0150
      vertex 0.0750 -0.0150 -0.0150
    endloop
  endfacet
  facet normal 0 0 0
    outer loop
      vertex 0.0750 -0.0150 -0.0150
      vertex -0.0750 0.0150 -0.0150
      vertex 0.0750 0.0150 -0.0150
    endloop
  endfacet
  facet normal 0 0 0
    outer loop
      vertex -0.0750 -0.0150 0.0150
      vertex 0.0750 -0.0150 0.0150
      vertex -0.0750 0.0150 0.0150
    endloop
  endfacet
  facet normal 0 0 0
    outer loop
      vertex 0.0750 -0.0150 0.0150
      vertex 0.0750 0.0150 0.0150
      vertex -0.0750 0.0150 0.0150
    endloop
  endfacet
  facet normal 0 0 0
    outer loop
      vertex -0.0750 -0.0150 -0.0150
      vertex 0.0750 -0.0150 -0.0150
      vertex -0.0750 -0.0150 0.0150
    endloop
  endfacet
  facet normal 0 0 0
    outer loop
      vertex 0.0750 -0.0150 -0.0150
      vertex 0.0750 -0.0150 0.0150
      vertex -0.0750 -0.0150 0.0150
    endloop
  endfacet
  facet normal 0 0 0
    outer loop
      vertex 0.0750 0.0150 -0.0150
      vertex -0.0750 0.0150 -0.0150
      vertex 0.0750 0.0150 0.0150
    endloop
  endfacet
  facet normal 0 0 0
    outer loop
      vertex -0.0750 0.0150 -0.0150
      vertex -0.0750 0.0150 0.0150
      vertex 0.0750 0.0150 0.0150
    endloop
  endfacet
  facet normal 0 0 0
    outer loop
      vertex 0.0750 -0.0150 -0.0150
      vertex 0.0750 0.0150 -0.0150
      vertex 0.0750 -0.0150 0.0150
    endloop
  endfacet
  facet normal 0 0 0
    outer loop
      vertex 0.0750 0.0150 -0.0150
      vertex 0.0750 0.0150 0.0150
      vertex 0.0750 -0.0150 0.0150
    endloop
  endfacet
  facet normal 0 0 0
    outer loop
      vertex -0.0750 0.0150 -0.0150
      vertex -0.0750 -0.0150 -0.0150
      vertex -0.0750 0.0150 0.0150
    endloop
  endfacet
  facet normal 0 0 0
    outer loop
      vertex -0.0750 -0.0150 -0.0150
      vertex -0.0750 -0.0150 0.0150
      vertex -0.0750 0.0150 0.0150
    endloop
  endfacet
endsolid cube
